<?xml version="1.0" standalone="no"?>
<!DOCTYPE svg PUBLIC "-//W3C//DTD SVG 20010904//EN"
 "http://www.w3.org/TR/2001/REC-SVG-20010904/DTD/svg10.dtd">
<svg version="1.0" xmlns="http://www.w3.org/2000/svg"
 width="300.000000pt" height="200.000000pt" viewBox="0 0 300.000000 200.000000"
 preserveAspectRatio="xMidYMid meet">

<g transform="translate(0.000000,200.000000) scale(0.100000,-0.100000)"
fill="#fff" stroke="white" stroke-width="10">
<path d="M1464 1460 c-48 -19 -71 -102 -41 -141 61 -80 189 -25 170 74 -10 52
-80 88 -129 67z m84 -49 c21 -27 11 -73 -20 -91 -25 -13 -31 -13 -55 0 -30 17
-38 38 -29 74 11 44 75 54 104 17z"/>
<path d="M1430 1245 c0 -13 12 -15 67 -13 42 2 68 8 71 16 3 9 -15 12 -67 12
-57 0 -71 -3 -71 -15z"/>
<path d="M1484 1206 c-3 -8 -3 -20 1 -26 4 -7 -22 -10 -79 -10 -76 0 -110 -10
-92 -27 3 -3 41 -5 85 -4 l80 2 3 -246 3 -247 -45 7 c-112 17 -211 91 -264
197 -49 97 -48 104 14 100 45 -4 50 -2 50 17 0 19 -6 21 -70 21 -38 0 -70 -4
-70 -8 0 -28 34 -131 56 -168 57 -97 175 -175 288 -190 l41 -6 -4 -44 c-3 -39
-1 -44 18 -44 22 0 22 0 21 303 l-1 302 81 1 c45 1 84 4 87 7 16 17 -17 27
-91 27 -78 0 -83 1 -82 21 1 26 -21 37 -30 15z"/>
<path d="M1760 969 c0 -19 5 -21 50 -17 60 4 61 -2 24 -82 -48 -104 -113 -164
-217 -200 -57 -20 -82 -56 -30 -44 96 22 207 103 258 189 21 36 55 139 55 167
0 4 -31 8 -70 8 -64 0 -70 -2 -70 -21z"/>
</g>
</svg>